<svg xmlns="http://www.w3.org/2000/svg" viewBox="0 0 512 512" role="img" aria-label="BRICO OS">
  <defs>
    <linearGradient id="bg" x1="48" y1="32" x2="456" y2="480" gradientUnits="userSpaceOnUse">
      <stop stop-color="#f2b84b"/>
      <stop offset="0.46" stop-color="#ef3c2f"/>
      <stop offset="1" stop-color="#b91c1c"/>
    </linearGradient>
    <linearGradient id="shine" x1="110" y1="78" x2="362" y2="420" gradientUnits="userSpaceOnUse">
      <stop stop-color="#fff" stop-opacity=".34"/>
      <stop offset=".5" stop-color="#fff" stop-opacity="0"/>
    </linearGradient>
    <filter id="shadow" x="-20%" y="-20%" width="140%" height="150%">
      <feDropShadow dx="0" dy="20" stdDeviation="18" flood-color="#300" flood-opacity=".42"/>
    </filter>
  </defs>
  <rect width="512" height="512" rx="124" fill="#090a0c"/>
  <rect x="36" y="36" width="440" height="440" rx="104" fill="url(#bg)" filter="url(#shadow)"/>
  <rect x="48" y="48" width="416" height="416" rx="94" fill="none" stroke="#fff" stroke-opacity=".2" stroke-width="8"/>
  <path d="M120 126c70-56 207-69 286-13-96-4-177 22-247 84-25 22-47-23-39-71Z" fill="url(#shine)"/>
  <g transform="translate(-32 -49.5)"><path d="M174 135h103c72 0 112 30 112 84 0 32-16 56-47 70 40 13 60 42 60 86 0 66-45 101-129 101h-99V135Zm92 130c34 0 51-12 51-37 0-24-17-36-51-36h-20v73h20Zm7 153c38 0 57-15 57-44 0-30-19-45-57-45h-27v89h27Z" fill="#fff"/></g>
</svg>